<svg xmlns="http://www.w3.org/2000/svg" data-name="Layer 1" viewBox="12.5 215 725 75" x="0px" y="0px">
   <path d="M56.13,258.61h0A12.17,12.17,0,0,1,43,261.32L14.46,250,43,238.68a12.18,12.18,0,0,1,13.11,19.93Zm624-7a27.91,27.91,0,0,0-3.94-1.62,27.91,27.91,0,0,0,3.94-1.62c7.06-3.57,12.53-11.36,11.11-19.15a17.06,17.06,0,0,0-8.41-11.32,20.66,20.66,0,0,0-16.34-1.78,13.73,13.73,0,0,1,2.87,22.15A13.33,13.33,0,0,0,648,236.76a7.33,7.33,0,0,1,7.11,6.44,6.08,6.08,0,0,1-.05,1.54H95a6.08,6.08,0,0,1,0-1.54,7.33,7.33,0,0,1,7.11-6.44,13.33,13.33,0,0,0-21.35,1.52,13.73,13.73,0,0,1,2.87-22.15,20.66,20.66,0,0,0-16.34,1.78,17.06,17.06,0,0,0-8.41,11.32c-1.42,7.79,4,15.58,11.11,19.15A27.91,27.91,0,0,0,73.86,250a27.91,27.91,0,0,0-3.94,1.62c-7.06,3.57-12.53,11.36-11.11,19.15a17.06,17.06,0,0,0,8.41,11.32,20.66,20.66,0,0,0,16.34,1.78,13.73,13.73,0,0,1-2.87-22.15A13.33,13.33,0,0,0,102,263.24a7.33,7.33,0,0,1-7.11-6.44,6.08,6.08,0,0,1,0-1.54H655a6.08,6.08,0,0,1,.05,1.54,7.33,7.33,0,0,1-7.11,6.44,13.33,13.33,0,0,0,21.35-1.52,13.73,13.73,0,0,1-2.87,22.15,20.66,20.66,0,0,0,16.34-1.78,17.06,17.06,0,0,0,8.41-11.32C692.61,263,687.14,255.19,680.08,251.62ZM707,238.68a12.18,12.18,0,0,0-13.11,19.93h0A12.17,12.17,0,0,0,707,261.32L735.54,250Z"/>
</svg>